<svg width="31" height="31" viewBox="0 0 31 31" fill="none" xmlns="http://www.w3.org/2000/svg">
<g clip-path="url(#clip0_726_423)">
<circle cx="15.8887" cy="15.4705" r="15" fill="white"/>
<path d="M16.4235 7.65796C18.4147 7.72678 20.2637 8.41494 21.6148 10.2042C23.6772 12.9569 24.5305 15.9849 22.6816 18.9441C19.837 23.4861 15.9968 24.1743 11.6589 21.628C8.67209 19.8387 7.81872 15.9161 8.7432 12.8881C9.66768 9.65368 12.6545 7.65796 16.4235 7.65796ZM12.0145 17.7742C12.2278 18.1871 12.4411 18.5312 12.5834 18.9441C12.7256 19.2882 13.01 19.4258 13.3656 19.4258C13.7923 19.4258 14.0056 19.2882 14.0768 18.9441C14.1479 18.5312 13.9345 18.4624 13.6501 18.3935C13.0812 18.2559 12.5834 17.843 12.0145 17.7742C11.5878 16.9484 11.0188 16.1914 11.1611 15.1591C11.4455 13.6451 11.73 12.0623 11.9433 10.6171C12.5122 10.4795 12.7967 10.6171 13.0812 10.8236C13.8634 11.3053 14.6457 11.5806 15.6413 11.3053C15.9968 11.2365 16.4235 11.3053 16.8502 11.3741C17.6325 11.5118 18.2725 11.4429 18.9125 10.8924C19.6948 10.273 20.0503 10.4795 20.1214 11.5118C20.1926 12.4752 20.1215 13.4387 20.5481 14.4021C21.2593 15.9161 20.477 17.843 18.4858 18.3935C18.1303 18.4624 17.8458 18.6 17.988 19.0817C18.2014 19.9075 18.0591 20.8022 18.4858 21.628C21.117 20.4581 22.3971 18.8753 22.7527 16.3978C22.8949 15.3655 22.6816 14.2645 22.3971 13.301C20.8326 7.8644 16.4235 7.24505 12.2989 9.37841C10.6633 10.2042 9.66768 11.8559 9.241 13.7139C8.88543 15.2279 9.31212 16.6043 9.66769 18.0495C10.1655 19.7011 11.3033 20.7333 12.8678 21.4215C13.0812 21.5591 13.4367 21.7656 13.579 21.3527C13.7212 21.0086 13.579 20.7333 13.0812 20.6645C12.37 20.5957 11.6589 20.4581 11.4455 19.7011C11.3033 19.0129 10.7344 18.5312 10.3788 18.0495C10.9477 17.7054 11.5167 17.9806 12.0145 17.7742Z" fill="black"/>
</g>
<defs>
<clipPath id="clip0_726_423">
<rect width="30" height="30" fill="white" transform="translate(0.888672 0.470459)"/>
</clipPath>
</defs>
</svg>
