<svg width="167" height="29" viewBox="0 0 167 29" fill="none" xmlns="http://www.w3.org/2000/svg">
<path d="M26.6834 21.6792C26.1315 22.3464 22.9652 24.2657 22.1662 24.8423C21.3754 25.4107 20.4981 25.9049 19.5344 26.325C18.5789 26.7451 17.5575 27.0705 16.4702 27.3011C15.3829 27.54 14.2709 27.6594 13.1341 27.6594C11.9809 27.6594 10.8524 27.5441 9.74866 27.3134C8.65312 27.0828 7.61936 26.7574 6.64738 26.3373C5.67539 25.9173 4.78166 25.4148 3.96619 24.8299C3.15071 24.2451 2.45055 23.6026 1.86571 22.9025C1.28088 22.1941 0.823714 21.4404 0.494229 20.6414C0.164743 19.8341 0 19.0022 0 18.1455C0 17.2888 0.164743 16.461 0.494229 15.662C0.823714 14.8548 1.28088 14.1011 1.86571 13.4009C2.45055 12.6925 3.15071 12.0459 3.96619 11.4611C4.78166 10.8762 5.67539 10.3738 6.64738 9.95366C7.61936 9.53357 8.65312 9.2082 9.74866 8.97756C10.8524 8.74692 11.9809 8.6316 13.1341 8.6316C14.2709 8.6316 15.3829 8.75104 16.4702 8.98992C17.5575 9.22056 18.5789 9.54593 19.5344 9.96602C20.4981 10.3779 21.3754 10.8721 22.1662 11.4487C22.9652 12.0171 23.6406 12.6349 24.1925 13.3021L21.3754 15.0195C21.3013 14.9289 21.1736 14.7848 20.9924 14.5871C20.8194 14.3811 20.5805 14.1546 20.2757 13.9075C19.971 13.6521 19.6003 13.3927 19.1637 13.1291C18.7354 12.8573 18.2288 12.6143 17.644 12.4001C17.0674 12.1777 16.4084 11.9965 15.667 11.8564C14.9339 11.7082 14.1143 11.634 13.2083 11.634C11.6432 11.634 10.2676 11.8235 9.08145 12.2024C7.8953 12.5731 6.89861 13.0632 6.09137 13.6727C5.29237 14.2823 4.68694 14.9783 4.27508 15.7609C3.86322 16.5351 3.65317 17.1323 3.64494 17.5524C3.6367 17.9725 3.63258 18.1949 3.63258 18.2196C3.63258 19.0104 3.82204 19.7888 4.20094 20.5549C4.58809 21.3209 5.17705 22.0087 5.96781 22.6183C6.75858 23.2278 7.75527 23.7221 8.95789 24.101C10.1688 24.4716 11.5855 24.657 13.2083 24.657C14.1226 24.657 14.9504 24.5828 15.6918 24.4346C16.4331 24.2863 17.0962 24.101 17.681 23.8786C18.2659 23.6562 18.7725 23.409 19.2008 23.1372C19.6374 22.8572 20.0039 22.5936 20.3004 22.3464C20.6052 22.0993 20.8441 21.8769 21.0171 21.6792C21.1901 21.4815 24.7444 18.7509 24.8103 18.6768L26.6834 21.6792Z" fill="#2F2255"/>
<path d="M77.3097 18.0343C77.3097 18.1167 77.3097 18.199 77.3097 18.2814C77.3097 19.1381 77.1862 19.97 76.939 20.7773C76.6919 21.5845 76.3295 22.3464 75.8517 23.0631C75.374 23.7715 74.8015 24.414 74.1343 24.9906C73.4671 25.5589 72.7299 26.0408 71.9226 26.4362C71.1236 26.8316 70.267 27.1364 69.3526 27.3505C68.4383 27.5647 67.5034 27.6718 66.5479 27.6718C65.4112 27.6718 64.258 27.5111 63.0883 27.1899C61.9269 26.8686 60.7984 26.3662 59.7028 25.6825C58.6073 24.9906 57.5694 24.1051 56.5892 23.026C55.609 21.9469 54.7358 20.6496 53.9698 19.134L53.352 16.4651C53.7847 17.3246 53.1852 15.1493 55.0571 16.8268C55.7865 17.4804 56.8912 18.7191 58.5785 20.9503C59.3445 21.8152 60.16 22.5277 61.0249 23.0878C61.898 23.6479 62.8041 24.0639 63.7431 24.3357C64.6904 24.6075 65.6459 24.7435 66.6097 24.7435C67.4663 24.7435 68.2489 24.6487 68.9573 24.4593C69.6656 24.2698 70.2999 24.0145 70.86 23.6932C71.4202 23.372 71.9062 22.9972 72.318 22.5689C72.7299 22.1323 73.0717 21.6669 73.3435 21.1727C73.6154 20.6784 73.813 20.176 73.9366 19.6653C74.0602 19.1546 74.1219 18.6603 74.1219 18.1826C74.1219 18.1579 74.1219 18.129 74.1219 18.0961C74.1137 17.5442 74.0437 17.0005 73.9119 16.4651C73.7883 15.9215 73.5948 15.4067 73.3312 14.9207C73.0676 14.4264 72.7216 13.9693 72.2933 13.5492C71.8732 13.1291 71.3584 12.7666 70.7488 12.4619C70.1393 12.1489 69.4309 11.9059 68.6236 11.7329C67.8164 11.5599 66.8897 11.4734 65.8436 11.4734C63.2407 11.4734 61.0002 11.9882 59.1221 13.0179C57.4997 13.9002 56.1447 15.1699 55.0571 16.8268C54.8857 17.0879 54.721 17.3586 54.5628 17.6389C54.4228 17.886 54.2375 18.2444 54.0068 18.7139C53.7844 19.1751 53.5662 19.7353 53.352 20.3942C53.1378 21.0532 52.9525 21.8028 52.796 22.643C52.6395 23.4832 52.5612 24.4016 52.5612 25.3983V27.2146H49.1881V25.3983C49.1881 24.3934 49.1057 23.4708 48.941 22.6306C48.7845 21.7822 48.5992 21.0285 48.385 20.3695C48.1708 19.7023 47.9484 19.1381 47.7178 18.6768C47.4954 18.2155 47.3183 17.8696 47.1865 17.6389C46.025 15.5796 44.5053 14.0393 42.6272 13.0179C40.7492 11.9882 38.5087 11.4734 35.9057 11.4734C34.8678 11.4734 33.9412 11.5599 33.1257 11.7329C32.3184 11.9059 31.61 12.1489 31.0005 12.4619C30.3909 12.7666 29.872 13.1291 29.4437 13.5492C29.0236 13.9693 28.6817 14.4264 28.4181 14.9207C28.1546 15.4067 27.961 15.9215 27.8374 16.4651C27.7139 17.0005 27.648 17.5442 27.6397 18.0961C27.6397 18.129 27.6397 18.162 27.6397 18.1949C27.6397 18.6644 27.6974 19.1546 27.8127 19.6653C27.9363 20.176 28.134 20.6784 28.4058 21.1727C28.6776 21.6669 29.0195 22.1323 29.4313 22.5689C29.8432 22.9972 30.3292 23.372 30.8893 23.6932C31.4494 24.0145 32.0837 24.2698 32.7921 24.4593C33.5005 24.6487 34.283 24.7435 35.1397 24.7435C36.1034 24.7435 37.0548 24.6075 37.9938 24.3357C38.9411 24.0639 39.8472 23.6479 40.7121 23.0878C41.5852 22.5277 42.4048 21.8152 43.1709 20.9503C43.9369 20.0771 46.6346 16.2139 47.2359 15.0195L47.7796 19.134C47.0135 20.6496 46.1362 21.9469 45.1478 23.026C44.1676 24.1051 43.1297 24.9906 42.0341 25.6825C40.9386 26.3744 39.806 26.881 38.6363 27.2022C37.4667 27.5153 36.3135 27.6718 35.1767 27.6718C34.2212 27.6718 33.2863 27.5647 32.372 27.3505C31.4659 27.1364 30.6092 26.8316 29.802 26.4362C29.003 26.0326 28.2699 25.5466 27.6027 24.9782C26.9355 24.4099 26.363 23.7674 25.8852 23.0507C25.4157 22.3341 25.0574 21.5763 24.8103 20.7773C24.5632 19.97 24.4396 19.1381 24.4396 18.2814C24.4396 18.199 24.4396 18.1167 24.4396 18.0343C24.4561 17.2765 24.5632 16.5187 24.7609 15.7609C24.9585 15.003 25.2551 14.2782 25.6505 13.5862C26.0459 12.8861 26.5483 12.2354 27.1579 11.634C27.7674 11.0327 28.4923 10.5097 29.3325 10.0649C30.1809 9.62006 31.1488 9.26998 32.2361 9.01463C33.3234 8.75928 34.5466 8.6316 35.9057 8.6316C37.7096 8.6316 39.3159 8.83341 40.7244 9.23703C42.1412 9.63242 43.385 10.1555 44.4559 10.8062C45.5349 11.4487 46.4616 12.1777 47.2359 12.9932C48.0102 13.8004 48.6609 14.6159 49.1881 15.4396V9.08876H52.5612V15.4396C53.0884 14.6159 53.7391 13.8004 54.5134 12.9932C55.2877 12.1777 56.2103 11.4487 57.2811 10.8062C58.3602 10.1555 59.604 9.63242 61.0125 9.23703C62.4293 8.83341 64.0397 8.6316 65.8436 8.6316C67.2027 8.6316 68.426 8.75928 69.5133 9.01463C70.6006 9.26998 71.5643 9.62006 72.4045 10.0649C73.2529 10.5097 73.9819 11.0327 74.5915 11.634C75.201 12.2354 75.7035 12.8861 76.0989 13.5862C76.4942 14.2782 76.7908 15.003 76.9885 15.7609C77.1862 16.5187 77.2932 17.2765 77.3097 18.0343Z" fill="#2F2255"/>
<path d="M120.555 9.07641L125.313 22.2229L122.9 23.9368L117.095 12.3013C116.79 12.3919 116.378 12.5278 115.86 12.709C115.349 12.882 114.768 13.0961 114.117 13.3515C113.467 13.6068 112.767 13.9034 112.017 14.2411C111.276 14.5706 110.522 14.9413 109.756 15.3531C108.99 15.7567 108.228 16.1974 107.47 16.6752C106.72 17.1447 106.016 17.6472 105.357 18.1826C105.909 18.8827 106.333 19.5664 106.63 20.2336C106.926 20.8926 107.12 21.4774 107.211 21.9881C107.309 22.4988 107.359 22.9478 107.359 23.3349C107.359 23.4914 107.342 23.7385 107.309 24.0763C107.285 24.414 107.202 24.797 107.062 25.2253C106.93 25.6454 106.766 26.012 106.568 26.325C106.37 26.638 106.177 26.881 105.987 27.054C105.6 27.4164 105.155 27.68 104.653 27.8447C104.15 28.0095 103.64 28.0919 103.121 28.0919C102.561 28.0919 102.021 28.0012 101.502 27.82C100.983 27.6471 100.547 27.3917 100.193 27.054C99.7889 26.6751 99.4594 26.1685 99.204 25.5342C98.9569 24.9 98.8334 24.1875 98.8334 23.3967C98.8334 22.6059 98.9858 21.7657 99.2905 20.8761C99.6036 19.9783 100.114 19.0804 100.823 18.1826C100.238 17.7048 99.6159 17.2518 98.9569 16.8234C98.3062 16.3951 97.6349 15.9915 96.943 15.6126C96.2593 15.2254 95.5674 14.8671 94.8672 14.5376C94.167 14.1999 93.4792 13.8951 92.8038 13.6233C92.1366 13.3432 91.4858 13.092 90.8516 12.8696C90.2173 12.6472 89.6284 12.4578 89.0847 12.3013V27.2022C89.0847 27.2022 87.4142 27.5186 84.5675 27.2022C81.7207 26.8859 79.5066 24.9906 79.5066 24.9906L85.6251 9.07641H88.7635C89.3977 9.24939 90.0979 9.46767 90.8639 9.73126C91.63 9.98661 92.429 10.279 93.2609 10.6085C94.1011 10.938 94.9578 11.3046 95.8309 11.7082C96.7123 12.1036 97.5772 12.5319 98.4256 12.9932C99.2741 13.4545 100.094 13.9446 100.884 14.4635C101.683 14.9824 102.421 15.522 103.096 16.0821C103.879 15.4314 104.772 14.7806 105.777 14.1299C106.782 13.4792 107.886 12.8531 109.089 12.2518C110.299 11.6423 111.601 11.0698 112.993 10.5344C114.393 9.99073 115.872 9.50474 117.429 9.07641H120.555ZM104.208 23.4832C104.208 22.9066 104.109 22.3588 103.912 21.8399C103.714 21.3127 103.442 20.802 103.096 20.3078C102.75 20.802 102.478 21.3127 102.281 21.8399C102.083 22.3588 101.984 22.9066 101.984 23.4832C101.984 23.6809 101.996 23.8786 102.021 24.0763C102.054 24.2739 102.108 24.4552 102.182 24.6199C102.264 24.7846 102.379 24.9206 102.528 25.0276C102.676 25.1265 102.87 25.1759 103.108 25.1759C103.339 25.1759 103.524 25.1224 103.664 25.0153C103.813 24.9082 103.924 24.7723 103.998 24.6075C104.08 24.4428 104.134 24.2616 104.159 24.0639C104.192 23.858 104.208 23.6644 104.208 23.4832Z" fill="#C62A17"/>
<path d="M132.91 8.56982C134.064 8.56982 135.188 8.68926 136.284 8.92814C137.379 9.16702 138.413 9.50062 139.385 9.92895C140.365 10.3573 141.259 10.8721 142.066 11.4734C142.882 12.0665 143.582 12.7255 144.167 13.4503C144.76 14.167 145.221 14.9371 145.55 15.7609C145.88 16.5763 146.045 17.4206 146.045 18.2938C146.045 19.1669 145.88 20.0153 145.55 20.8391C145.221 21.6545 144.76 22.4247 144.167 23.1496C143.582 23.8662 142.882 24.5252 142.066 25.1265C141.259 25.7196 140.365 26.2303 139.385 26.6586C138.413 27.0869 137.379 27.4205 136.284 27.6594C135.188 27.8983 134.064 28.0177 132.91 28.0177C131.774 28.0177 130.662 27.8983 129.574 27.6594C128.487 27.4205 127.462 27.0869 126.498 26.6586C125.542 26.2303 124.665 25.7237 123.866 25.1388C123.075 24.554 122.48 22.6718 121.928 21.9881L124.669 21.4939C124.743 21.5845 124.867 21.7328 125.04 21.9387C125.221 22.1446 125.464 22.3753 125.769 22.6306C126.074 22.886 126.44 23.1537 126.868 23.4338C127.305 23.7056 127.812 23.9568 128.388 24.1875C128.973 24.4099 129.632 24.5952 130.365 24.7435C131.107 24.8835 131.93 24.9535 132.836 24.9535C134.179 24.9535 135.382 24.8135 136.444 24.5334C137.507 24.2451 138.425 23.8621 139.2 23.3843C139.982 22.8983 140.62 22.3423 141.115 21.7163C141.617 21.082 141.971 20.4148 142.177 19.7147L121.852 19.7447V16.9029L142.227 16.8729C142.045 16.1727 141.712 15.5096 141.226 14.8836C140.748 14.2493 140.118 13.6933 139.335 13.2156C138.561 12.7296 137.63 12.3466 136.543 12.0665C135.464 11.7782 134.228 11.634 132.836 11.634C131.922 11.634 131.094 11.7082 130.353 11.8564C129.611 12.0047 128.948 12.1942 128.364 12.4248C127.779 12.6554 127.268 12.9108 126.831 13.1909C126.403 13.4709 126.037 13.7386 125.732 13.994C125.435 14.2493 125.196 14.48 125.015 14.6859C124.842 14.8836 122.9 19.1587 121.928 16.6752L121.852 13.3515C122.404 12.6678 123.075 12.0335 123.866 11.4487C124.665 10.8639 125.542 10.3573 126.498 9.92895C127.462 9.50062 128.487 9.16702 129.574 8.92814C130.662 8.68926 131.774 8.56982 132.91 8.56982Z" fill="#C62A17"/>
<path d="M165.703 19.9742C165.694 20.1307 165.69 20.2913 165.69 20.456C165.69 20.7855 165.711 21.1644 165.752 21.5928C165.793 22.0128 165.863 22.4494 165.962 22.9025C166.069 23.3473 166.201 23.7344 166.357 24.0639C166.514 24.3851 166.691 24.5993 166.889 24.7064L165.344 27.6718C164.982 27.4823 164.632 27.2064 164.294 26.8439C163.956 26.4733 163.656 26.049 163.392 25.5713C163.137 25.0853 162.931 24.5581 162.774 23.9898C162.626 23.4132 162.552 22.8242 162.552 22.2229C162.428 22.3547 162.251 22.5565 162.021 22.8283C161.798 23.1001 161.53 23.4049 161.217 23.7426C160.913 24.0721 160.563 24.4222 160.167 24.7929C159.772 25.1553 159.339 25.5054 158.87 25.8431C158.409 26.1808 157.906 26.4897 157.362 26.7698C156.827 27.0416 156.263 27.2476 155.67 27.3876C155.423 27.4535 155.13 27.507 154.792 27.5482C154.463 27.5894 154.105 27.61 153.717 27.61C153.33 27.61 152.927 27.5812 152.507 27.5235C152.087 27.4658 151.671 27.3588 151.259 27.2022C150.847 27.054 150.447 26.8563 150.06 26.6092C149.681 26.3538 149.331 26.0367 149.01 25.6578C148.689 25.2706 148.409 24.8094 148.17 24.2739C147.939 23.7385 147.77 23.1166 147.663 22.4082C147.573 21.8152 147.503 21.2386 147.453 20.6784C147.412 20.1101 147.383 19.6035 147.367 19.1587C147.35 18.7633 147.342 18.3844 147.342 18.0219V9.08876H150.69V19.171C150.69 20.143 150.769 20.9626 150.925 21.6298C151.09 22.297 151.308 22.8366 151.58 23.2484C151.86 23.652 152.185 23.9445 152.556 24.1257C152.935 24.2987 153.339 24.3851 153.767 24.3851C154.212 24.3851 154.673 24.3069 155.151 24.1504C155.637 23.9856 156.114 23.7715 156.584 23.5079C157.054 23.2443 157.507 22.9436 157.943 22.6059C158.388 22.2682 158.787 21.9264 159.142 21.5804C159.965 20.7814 160.633 20.0524 161.143 19.3934C161.662 18.7262 162.066 18.162 162.354 17.7007V9.08876H165.703V19.9742Z" fill="#C62A17"/>
<path d="M35.7559 14.0229C35.7283 14.2434 35.0248 14.5741 34.8818 14.6803C34.1463 15.2263 32.3328 16.9749 31.6021 16.7922" stroke="#E5760D" stroke-width="2" stroke-linecap="round"/>
<path d="M38.9026 16.6665C38.5754 16.6962 38.3417 16.8895 38.0634 17.0441C36.8374 17.7252 35.5893 18.362 34.3711 19.0581" stroke="#E5760D" stroke-width="2" stroke-linecap="round"/>
<path d="M65.588 14.9041C65.678 14.8641 66.3271 14.6021 65.9516 14.8062C64.2967 15.7056 62.5725 16.4762 60.9307 17.4216" stroke="#E5760D" stroke-width="2" stroke-linecap="round"/>
<path d="M68.7349 17.2957C67.1812 17.451 65.4027 18.4325 63.9517 18.932" stroke="#E5760D" stroke-width="2" stroke-linecap="round"/>
<path d="M153.465 17.4239C153.416 17.5115 152.755 18.2781 153.104 17.9661C154.591 16.635 156.266 15.4515 157.803 14.1702" stroke="#E5760D" stroke-width="2" stroke-linecap="round"/>
<path d="M155.634 21.0391C155.678 21.3869 156.149 20.7899 156.317 20.6776C157.598 19.8236 158.741 18.7745 160.153 18.147" stroke="#E5760D" stroke-width="2" stroke-linecap="round"/>
<path d="M85.9385 6.93132C86.6124 6.93132 87.3521 6.28505 88.048 6.13783C90.0565 5.71295 91.668 5.31316 93.7283 5.8185C96.4074 6.47563 100.031 7.76281 101.092 10.415" stroke="#E5760D" stroke-width="2" stroke-linecap="round"/>
<path d="M120.252 7.27966C119.374 7.18206 117.899 6.23473 117.069 5.89588C114.781 4.96192 112.661 5.21536 110.44 6.40875C109.683 6.81555 106.839 9.54402 107.015 9.54402" stroke="#E5760D" stroke-width="2" stroke-linecap="round"/>
<path d="M9.25575 5.41758C9.21674 5.72967 9.67101 4.86125 10.3434 4.54747C14.6066 2.55794 19.1484 2.1947 23.0688 4.98252C24.3858 5.91904 25.7018 6.57461 27.3106 6.81943C29.2848 7.11984 31.1453 5.88426 33.0631 5.53843C37.2677 4.78022 41.0363 3.87298 45.148 5.63511" stroke="#E5760D" stroke-width="2" stroke-linecap="round"/>
</svg>
