<svg width="31" height="31" viewBox="0 0 31 31" fill="none" xmlns="http://www.w3.org/2000/svg">
<g clip-path="url(#clip0_726_412)">
<circle cx="15.8887" cy="15.4705" r="15" fill="white"/>
<path d="M6.82617 16.3994C8.55567 15.2989 9.81348 14.5127 11.1499 13.7266C14.2944 11.9971 17.3604 10.2676 20.4263 8.38089C21.6055 7.67337 21.9199 7.83058 21.9199 9.24562C21.8413 10.2676 21.6841 11.211 21.5269 12.2329C21.0552 15.1416 20.5049 18.0503 20.0332 20.959C19.876 21.8238 19.5615 22.0596 18.7754 21.5879C18.3823 21.3521 17.9893 21.2735 17.5962 21.1162C15.5523 20.2515 15.3164 20.2515 13.8228 21.9024C13.5083 22.2168 13.4297 22.6885 12.8008 22.7671C12.565 21.2735 12.2505 19.9371 13.3511 18.6006C14.4517 17.1856 15.4736 15.8491 16.6528 14.4341C16.9673 14.041 17.2031 13.648 17.3604 13.1763C15.5523 14.3555 13.7442 15.6133 12.2505 17.1856C11.7002 17.8145 11.2285 17.8931 10.4424 17.5786C9.42042 17.1856 8.31983 16.8711 6.82617 16.3994Z" fill="black"/>
</g>
<defs>
<clipPath id="clip0_726_412">
<rect width="30" height="30" fill="white" transform="translate(0.888672 0.470459)"/>
</clipPath>
</defs>
</svg>
