<svg width="31" height="31" viewBox="0 0 31 31" fill="none" xmlns="http://www.w3.org/2000/svg">
<g clip-path="url(#clip0_726_417)">
<circle cx="15.8887" cy="15.4705" r="15" fill="white"/>
<path d="M16.4178 22.8439C15.6889 22.771 14.887 22.8439 14.158 22.5523C12.9917 22.042 11.8253 22.042 10.659 22.771C10.3674 22.9168 10.0029 23.1355 9.7113 22.771C9.49261 22.5523 9.6384 22.1878 9.7113 21.9691C10.3674 20.5112 10.0029 19.2719 9.41971 17.814C8.25335 14.971 8.39915 12.2009 10.659 9.86819C12.9188 7.60838 15.7618 7.24389 18.7506 8.04576C19.6982 8.33735 20.5001 8.92051 21.2291 9.64949C24.7281 13.3672 24.8739 19.6364 19.4795 22.2607C18.459 22.771 17.4384 22.771 16.4178 22.8439ZM10.659 21.8962C12.1898 20.7299 13.6477 21.5317 15.1057 21.7504C17.2197 22.042 19.2608 21.9691 21.0104 20.3654C22.8328 18.6159 23.3431 15.6271 22.4683 13.2214C21.3749 10.2327 18.8964 8.62893 16.1263 8.62893C12.9188 8.62893 9.56551 11.2532 9.7113 14.3878C9.7842 15.6271 9.85709 16.8663 10.5132 17.9598C11.2421 19.1261 11.3879 20.2925 10.659 21.8962Z" fill="black"/>
<path d="M16.8552 16.9392C16.9281 16.8663 17.0739 16.7934 17.1468 16.7205C17.4384 16.2831 17.5842 15.6999 18.3132 15.8457C18.9692 16.0644 19.5524 16.5747 19.7711 17.2308C19.9898 17.8869 19.5524 18.3242 19.115 18.6887C18.1674 19.4177 17.2197 19.199 16.3449 18.7616C14.3767 17.6682 13.2833 15.8457 12.6272 13.7317C12.4085 12.9299 12.7001 12.2738 13.5019 11.8364C14.0122 11.5448 14.4496 11.5448 14.7412 11.9822C15.1786 12.5654 16.1262 13.0756 15.3244 14.0233C14.9599 14.4607 15.1057 14.8981 15.3973 15.2626C15.7618 15.9186 16.1262 16.5747 16.8552 16.9392Z" fill="black"/>
</g>
<defs>
<clipPath id="clip0_726_417">
<rect width="30" height="30" fill="white" transform="translate(0.888672 0.470459)"/>
</clipPath>
</defs>
</svg>
